# 3ds Max Wavefront OBJ Exporter v0.97b - (c)2007 guruware
# File Created: 06.08.2020 17:09:20

mtllib arrow.mtl

#
# object Line001
#

v  9.0972 0.0000 23.7384
v  9.0972 0.0000 -13.9865
v  9.0972 3.5000 -13.9865
v  9.0972 3.5000 23.7384
v  27.9830 0.0000 -13.9865
v  27.9830 3.5000 -13.9865
v  2.1404 0.0000 -59.0358
v  2.1404 3.5000 -59.0358
v  2.1404 3.5000 23.7384
v  2.1404 0.0000 23.7384
v  -4.8165 0.0000 23.7384
v  -4.8165 3.5000 23.7384
v  -4.8165 3.5000 -13.9865
v  -4.8165 0.0000 -13.9865
v  -23.7023 3.5000 -13.9865
v  -23.7023 0.0000 -13.9865
# 16 vertices

vn 1.0000 0.0000 -0.0000
vn 0.0000 0.0000 1.0000
vn 0.8674 0.0000 -0.4976
vn 0.0000 0.0000 -1.0000
vn 0.0000 1.0000 -0.0000
vn 0.0000 -1.0000 -0.0000
vn -1.0000 0.0000 -0.0000
vn -0.8674 0.0000 -0.4976
# 8 vertex normals

g Line001
usemtl wire_177028149
s 2
f 1//1 2//1 3//1 4//1 
s 4
f 2//2 5//2 6//2 3//2 
s 9
f 5//3 7//4 8//4 6//3 
s 1024
f 3//5 6//5 8//5 9//5 4//5 
f 2//6 1//6 10//6 7//6 5//6 
s 16
f 10//2 1//2 4//2 9//2 
s 2
f 11//7 12//7 13//7 14//7 
s 4
f 14//2 13//2 15//2 16//2 
s 9
f 16//8 15//8 8//4 7//4 
s 1024
f 13//5 12//5 9//5 8//5 15//5 
f 14//6 16//6 7//6 10//6 11//6 
s 16
f 10//2 9//2 12//2 11//2 
# 12 polygons

